<?xml version="1.0" standalone="no"?>
<!DOCTYPE svg PUBLIC "-//W3C//DTD SVG 20010904//EN"
 "http://www.w3.org/TR/2001/REC-SVG-20010904/DTD/svg10.dtd">
<svg version="1.0" xmlns="http://www.w3.org/2000/svg"
 width="512.000000pt" height="512.000000pt" viewBox="0 0 512.000000 512.000000"
 preserveAspectRatio="xMidYMid meet">

<g transform="translate(0.000000,512.000000) scale(0.100000,-0.100000)"
fill="#000000" stroke="none">
<path d="M2391 5110 c-137 -29 -243 -84 -342 -177 -38 -36 -86 -92 -107 -124
l-39 -59 -139 -3 c-119 -3 -149 -7 -206 -29 -103 -39 -175 -86 -258 -168 -82
-83 -139 -170 -173 -270 -22 -64 -22 -72 -25 -757 l-3 -693 -57 29 c-196 99
-482 86 -680 -31 -87 -51 -230 -199 -274 -283 -65 -125 -83 -202 -83 -350 0
-139 11 -192 63 -310 36 -82 1200 -1635 1271 -1696 65 -56 158 -113 230 -140
135 -50 115 -50 1274 -47 l1082 3 65 23 c97 35 166 78 244 153 81 76 138 165
166 259 11 36 73 342 137 680 l118 615 3 845 c3 948 5 922 -69 1069 -105 210
-327 355 -565 368 l-91 6 -6 91 c-3 51 -15 122 -27 161 -62 200 -241 381 -440
447 -50 17 -95 22 -200 25 l-135 3 -34 52 c-80 127 -219 234 -366 284 -89 29
-252 41 -334 24z m270 -392 c51 -30 118 -99 146 -149 17 -32 18 -85 21 -1021
l2 -988 50 0 50 0 0 793 0 794 30 61 c59 117 153 176 285 177 68 0 89 -4 137
-28 68 -34 139 -108 164 -175 18 -44 19 -100 22 -834 l3 -788 44 0 45 0 0 420
c0 399 1 422 21 474 62 166 272 250 430 173 66 -32 132 -99 162 -165 22 -47
22 -48 22 -862 l0 -815 -118 -615 c-134 -697 -130 -685 -231 -755 l-58 -40
-1068 -3 c-1051 -2 -1069 -2 -1123 18 -29 11 -73 37 -97 57 -24 21 -301 382
-617 802 -424 566 -578 779 -594 820 -30 80 -24 215 13 286 35 67 110 139 178
172 48 24 68 27 150 28 102 0 156 -17 225 -69 17 -13 137 -164 266 -335 l234
-310 5 1152 5 1152 22 47 c30 66 96 133 162 165 76 38 191 39 266 3 60 -29
125 -92 157 -152 l23 -43 3 -802 2 -803 45 0 44 0 3 973 3 972 22 47 c65 140
162 201 314 195 71 -2 93 -7 130 -29z"/>
</g>
</svg>
