<?xml version="1.0" standalone="no"?>
<!DOCTYPE svg PUBLIC "-//W3C//DTD SVG 20010904//EN"
 "http://www.w3.org/TR/2001/REC-SVG-20010904/DTD/svg10.dtd">
<svg version="1.0" xmlns="http://www.w3.org/2000/svg"
 width="512.000000pt" height="512.000000pt" viewBox="0 0 512.000000 512.000000"
 preserveAspectRatio="xMidYMid meet">

<g transform="translate(0.000000,512.000000) scale(0.100000,-0.100000)"
fill="#000000" stroke="none">
<path d="M2465 4384 c-11 -2 -45 -9 -75 -15 -74 -14 -225 -88 -280 -136 l-44
-40 -75 26 c-66 22 -93 25 -211 25 -123 1 -142 -2 -215 -27 -149 -53 -268
-144 -354 -272 -58 -87 -88 -163 -104 -261 l-11 -71 -91 -6 c-50 -3 -121 -15
-160 -27 -199 -62 -380 -239 -448 -440 -21 -62 -22 -82 -25 -506 -2 -374 -1
-452 13 -509 20 -87 63 -177 119 -249 25 -32 249 -254 498 -493 l453 -435 12
-81 c35 -243 178 -418 392 -481 48 -14 169 -16 1066 -16 901 0 1017 2 1066 16
125 37 223 108 299 216 69 98 90 170 100 343 7 136 12 159 169 781 88 353 167
681 176 729 12 70 15 181 15 555 0 432 -1 473 -20 544 -31 123 -82 208 -185
312 -96 97 -182 149 -295 179 -80 22 -215 29 -285 16 l-60 -11 -58 64 c-72 81
-172 148 -279 188 -69 25 -102 31 -198 35 -133 6 -214 -9 -322 -58 l-66 -31
-47 32 c-62 43 -153 79 -243 96 -69 13 -181 17 -227 8z m245 -395 c67 -31 142
-105 175 -173 34 -72 45 -155 45 -353 l0 -173 45 0 45 0 0 215 c0 251 9 292
86 370 128 133 341 134 459 3 21 -22 49 -66 64 -97 25 -54 26 -63 29 -273 l4
-218 43 0 43 0 4 93 c3 78 8 100 33 145 33 60 84 110 147 144 36 19 58 23 138
23 86 0 100 -3 148 -29 65 -36 107 -82 141 -156 l26 -55 0 -460 -1 -460 -172
-690 c-95 -379 -177 -719 -182 -755 -5 -36 -10 -100 -10 -143 0 -95 -22 -145
-82 -184 l-42 -28 -971 0 -971 0 -41 27 c-48 32 -83 97 -83 156 0 60 -19 140
-46 194 -31 61 -53 83 -561 567 -372 355 -436 419 -460 469 l-28 57 0 400 0
400 28 57 c96 196 352 244 505 95 24 -23 56 -64 70 -92 l27 -50 3 -295 2 -295
43 -37 42 -38 5 648 5 647 25 50 c29 60 101 134 152 158 162 76 350 10 430
-151 21 -43 23 -63 26 -229 l4 -183 44 0 44 0 0 183 c0 100 4 208 10 241 22
137 111 241 248 293 60 22 195 12 262 -18z"/>
</g>
</svg>
