<?xml version="1.0" standalone="no"?>
<!DOCTYPE svg PUBLIC "-//W3C//DTD SVG 20010904//EN"
 "http://www.w3.org/TR/2001/REC-SVG-20010904/DTD/svg10.dtd">
<svg version="1.0" xmlns="http://www.w3.org/2000/svg"
 width="512.000000pt" height="512.000000pt" viewBox="0 0 512.000000 512.000000"
 preserveAspectRatio="xMidYMid meet">

<g transform="translate(0.000000,512.000000) scale(0.100000,-0.100000)"
fill="#000000" stroke="none">
<path d="M1050 4743 c-68 -11 -188 -60 -252 -102 -85 -56 -189 -163 -241 -247
-19 -33 -48 -95 -64 -139 -26 -74 -28 -91 -28 -230 0 -139 2 -156 28 -230 54
-155 166 -300 295 -383 35 -22 106 -58 160 -79 l96 -38 -229 -6 c-213 -5 -236
-7 -310 -32 -110 -36 -196 -89 -280 -172 -151 -149 -225 -322 -225 -525 0
-315 204 -596 507 -698 l78 -27 440 -3 440 -3 1 -122 c0 -135 16 -210 65 -313
57 -121 181 -251 287 -302 29 -14 32 -20 32 -61 1 -145 87 -346 200 -464 79
-84 144 -125 255 -164 l80 -28 420 -3 c347 -3 442 0 545 13 81 11 327 67 705
161 640 160 684 175 803 276 112 95 187 211 234 358 l23 75 0 1090 0 1090 -27
80 c-66 195 -212 357 -400 445 -124 58 -143 60 -820 60 l-617 0 -920 350
c-506 193 -948 357 -983 365 -58 14 -236 19 -298 8z m216 -363 c23 -5 461
-169 973 -365 l931 -355 102 0 103 0 -50 -47 c-303 -282 -324 -303 -357 -371
l-33 -67 -5 -339 -5 -339 -335 -153 -335 -154 -800 3 -800 2 -60 24 c-72 29
-159 112 -196 186 -35 73 -39 207 -9 289 31 81 123 174 205 207 l60 24 953 3
952 3 0 88 c0 75 -3 90 -17 96 -10 4 -355 135 -768 292 -412 157 -764 294
-782 304 -52 32 -120 116 -144 177 -28 70 -30 194 -5 261 62 168 250 271 422
231z m3276 -758 c83 -41 158 -120 187 -198 21 -55 21 -62 19 -1102 l-3 -1047
-28 -53 c-34 -64 -100 -133 -155 -161 -41 -21 -1071 -283 -1207 -307 -104 -19
-548 -30 -522 -14 10 7 210 99 445 206 235 108 446 206 469 220 56 32 109 95
147 174 29 60 31 73 31 170 0 87 -4 113 -23 154 -52 114 -147 201 -255 235
l-57 17 36 35 c52 50 91 116 109 184 12 47 15 122 15 377 l0 318 -44 0 -45 0
-3 -332 -3 -333 -26 -56 c-35 -73 -85 -128 -151 -165 -48 -26 -62 -29 -143
-29 -74 0 -98 4 -137 23 -65 32 -125 94 -154 157 l-25 53 3 504 3 504 26 49
c19 37 80 101 243 253 l218 203 482 -3 481 -3 67 -33z m-1610 -1364 c3 -120 6
-139 31 -188 47 -97 128 -176 217 -210 19 -7 39 -16 43 -20 4 -4 -218 -110
-495 -236 l-503 -229 -80 1 c-67 0 -89 5 -133 27 -111 58 -172 150 -180 271
-6 98 23 172 92 240 47 47 89 68 516 263 256 116 470 212 477 212 7 1 12 -40
15 -131z m714 -457 c62 -28 128 -92 161 -156 67 -131 22 -311 -100 -393 -58
-40 -1083 -504 -1132 -513 -47 -9 -145 6 -189 28 -43 21 -114 91 -136 134 -47
90 -45 210 4 307 32 64 73 98 182 154 111 57 945 436 999 454 54 19 150 11
211 -15z"/>
</g>
</svg>
